<svg id="Layer_1" data-name="Layer 1" xmlns="http://www.w3.org/2000/svg" xmlns:xlink="http://www.w3.org/1999/xlink" viewBox="0 0 311.25 103.75"><defs><style>.cls-1{fill:#fff;}.cls-2{mask:url(#mask);}.cls-3{fill:#777;}.cls-4{isolation:isolate;}.cls-5{fill:#ccc;}.cls-6{fill:#fc7e0f;}</style><mask id="mask" x="0" y="0" width="311.25" height="103.75" maskUnits="userSpaceOnUse"><g id="mask-2"><rect id="path-1" class="cls-1" x="2.47" y="2.47" width="306.31" height="98.81" rx="12.35" ry="12.35"/></g></mask></defs><title>overcast-button</title><g id="RP-Buttons"><g id="RadioPublic-badges_white-button_full-color" data-name="RadioPublic-badges/white-button/full-color"><g class="cls-2"><g id="badge"><g id="BG"><rect id="path-1-2" data-name="path-1" class="cls-1" x="2.47" y="2.47" width="306.31" height="98.81" rx="12.35" ry="12.35"/><path class="cls-3" d="M296.43,103.75H14.82A14.84,14.84,0,0,1,0,88.93V14.82A14.84,14.84,0,0,1,14.82,0H296.43a14.84,14.84,0,0,1,14.82,14.82V88.93A14.84,14.84,0,0,1,296.43,103.75ZM14.82,4.94a9.89,9.89,0,0,0-9.88,9.88V88.93a9.89,9.89,0,0,0,9.88,9.88H296.43a9.89,9.89,0,0,0,9.88-9.88V14.82a9.89,9.89,0,0,0-9.88-9.88Z"/></g><g id="text"><g class="cls-4"><path d="M131.49,67.75a14.49,14.49,0,0,1-1,5.38,13.93,13.93,0,0,1-2.78,4.46,13,13,0,0,1-9.66,4.16,13.19,13.19,0,0,1-9.58-4,14.06,14.06,0,0,1-2.88-4.44,14.53,14.53,0,0,1-1.06-5.56,15.26,15.26,0,0,1,1.12-5.94,14.15,14.15,0,0,1,3-4.54,13.52,13.52,0,0,1,4.32-2.9,13.06,13.06,0,0,1,5.08-1,13.27,13.27,0,0,1,5.12,1,12.91,12.91,0,0,1,4.3,2.88,13.69,13.69,0,0,1,2.94,4.54A15.77,15.77,0,0,1,131.49,67.75Zm-3.92-.08a12.62,12.62,0,0,0-.74-4.42,10.33,10.33,0,0,0-2-3.46,9,9,0,0,0-3.08-2.24,9.33,9.33,0,0,0-3.86-.8,8.77,8.77,0,0,0-3.5.74,8.94,8.94,0,0,0-3,2.16,10.59,10.59,0,0,0-2.1,3.44,12.64,12.64,0,0,0-.78,4.58,12.26,12.26,0,0,0,.66,4,10.76,10.76,0,0,0,1.9,3.42,9.38,9.38,0,0,0,3,2.38,9,9,0,0,0,4.08.9,8.37,8.37,0,0,0,3.86-.88,9.5,9.5,0,0,0,3-2.34,10.5,10.5,0,0,0,1.92-3.4A12,12,0,0,0,127.57,67.67Z"/><path d="M141.25,74.91h.16l4.52-11.68h3.72l-7.88,18.48h-1.2l-7.48-18.48h3.72Z"/><path d="M154,73.19a7.4,7.4,0,0,0,.4,2.62,4.62,4.62,0,0,0,1.06,1.7,3.85,3.85,0,0,0,1.56.92,6.27,6.27,0,0,0,4.4-.26,7,7,0,0,0,2.18-1.38h.12l.68,2.88a7.37,7.37,0,0,1-2.54,1.48,10.05,10.05,0,0,1-3.42.56,9.09,9.09,0,0,1-3.1-.52,7.22,7.22,0,0,1-2.58-1.6,7.53,7.53,0,0,1-1.78-2.8,11.52,11.52,0,0,1-.66-4.12,12.68,12.68,0,0,1,.62-4,9.55,9.55,0,0,1,1.74-3.16,8.12,8.12,0,0,1,2.62-2.06,7.32,7.32,0,0,1,3.26-.74,7.15,7.15,0,0,1,2.88.56,6.34,6.34,0,0,1,2.18,1.54,6.76,6.76,0,0,1,1.38,2.3,8.12,8.12,0,0,1,.48,2.8c0,.4,0,.91-.06,1.54a6.85,6.85,0,0,1-.34,1.78Zm7.92-2.56a5.68,5.68,0,0,0-.06-2.12,4,4,0,0,0-.72-1.56,3.33,3.33,0,0,0-1.2-1,3.26,3.26,0,0,0-1.46-.34,3.89,3.89,0,0,0-1.7.38,4.21,4.21,0,0,0-1.36,1.06,5,5,0,0,0-.9,1.58,6.83,6.83,0,0,0-.36,2Z"/><path d="M178.41,62.91v3.76h-1.28a4.87,4.87,0,0,0-1.72.58,6.48,6.48,0,0,0-1.54,1.2,7.92,7.92,0,0,0-1.22,1.7,7.6,7.6,0,0,0-.76,2.08v8.92h-3.6V63.23h3.08l.32,3.72H172a7,7,0,0,1,1-1.54,7.59,7.59,0,0,1,1.32-1.28,7.13,7.13,0,0,1,1.54-.88,4.25,4.25,0,0,1,1.66-.34Z"/><path d="M191.77,67.35a6.9,6.9,0,0,0-1.8-1.2,5.09,5.09,0,0,0-2.12-.44,4.29,4.29,0,0,0-2,.5,4.81,4.81,0,0,0-1.62,1.4,7.17,7.17,0,0,0-1.08,2.2,9.6,9.6,0,0,0-.4,2.86,8.66,8.66,0,0,0,.38,2.7,5,5,0,0,0,1,1.86,4.14,4.14,0,0,0,1.54,1.06,5.24,5.24,0,0,0,1.92.34,5.63,5.63,0,0,0,2.42-.5A8.87,8.87,0,0,0,191.89,77l.8,2.8a7.92,7.92,0,0,1-2.36,1.36,8.18,8.18,0,0,1-3,.56,8.49,8.49,0,0,1-3.38-.66,7.7,7.7,0,0,1-2.64-1.84,8.34,8.34,0,0,1-1.7-2.82,10.53,10.53,0,0,1-.6-3.64,11.42,11.42,0,0,1,.7-4,10.58,10.58,0,0,1,1.86-3.18,8.57,8.57,0,0,1,2.7-2.1,7.15,7.15,0,0,1,3.22-.76,7.61,7.61,0,0,1,3,.52,12.44,12.44,0,0,1,2.4,1.4Z"/><path d="M209.57,79.67l-2.44,2.08a5.79,5.79,0,0,1-1.12-1,4.52,4.52,0,0,1-.84-1.52H205a5.69,5.69,0,0,1-2.3,1.86,7.06,7.06,0,0,1-2.9.62,6.11,6.11,0,0,1-2.08-.36,5.07,5.07,0,0,1-1.74-1,5.23,5.23,0,0,1-1.2-1.68,5.37,5.37,0,0,1-.46-2.28,5.67,5.67,0,0,1,.38-2A4.93,4.93,0,0,1,196,72.53a6.43,6.43,0,0,1,2.28-1.34,10.17,10.17,0,0,1,3.5-.52c.4,0,.87,0,1.4.06s1,.09,1.48.14V69.11a4,4,0,0,0-.3-1.66,3.13,3.13,0,0,0-.78-1.08,2.88,2.88,0,0,0-1.08-.6,4,4,0,0,0-1.16-.18,6.19,6.19,0,0,0-2.32.46,13.92,13.92,0,0,0-2.44,1.3l-1.2-2.68a18.36,18.36,0,0,1,2.88-1.38,10.47,10.47,0,0,1,3.76-.62,7.81,7.81,0,0,1,2.2.32,5.13,5.13,0,0,1,1.92,1,5.47,5.47,0,0,1,1.36,1.82,6.13,6.13,0,0,1,.52,2.66v8.24a3,3,0,0,0,.5,1.74,3.18,3.18,0,0,0,1.1,1Zm-5-6.2c-.37,0-.83-.11-1.36-.16s-1.05-.08-1.56-.08a4.39,4.39,0,0,0-2.92.86,2.77,2.77,0,0,0-1,2.22,2.21,2.21,0,0,0,.8,1.88,3.17,3.17,0,0,0,2,.6,4.75,4.75,0,0,0,2.48-.64,4,4,0,0,0,1.6-1.72Z"/><path d="M222.09,67.63a11.59,11.59,0,0,0-2.46-1.52,5.74,5.74,0,0,0-2.34-.52,2.84,2.84,0,0,0-1.9.54,1.61,1.61,0,0,0-.62,1.22,1.53,1.53,0,0,0,.32.94,4.46,4.46,0,0,0,.88.84,14.91,14.91,0,0,0,1.34.88c.52.31,1.09.63,1.7,1a12.36,12.36,0,0,1,3.5,2.76,4.75,4.75,0,0,1,1,3,4.61,4.61,0,0,1-.5,2.18,4.45,4.45,0,0,1-1.36,1.56,6.36,6.36,0,0,1-2,.94,8.3,8.3,0,0,1-2.3.32,9.81,9.81,0,0,1-3.58-.64,8.42,8.42,0,0,1-2.66-1.56l1.08-2.68a16.13,16.13,0,0,0,2.36,1.36,6.3,6.3,0,0,0,2.68.56,3.6,3.6,0,0,0,2-.54,1.69,1.69,0,0,0,.82-1.5,1.68,1.68,0,0,0-.34-1,4.76,4.76,0,0,0-.92-.94,10.4,10.4,0,0,0-1.34-.9c-.51-.29-1-.59-1.6-.88a19.47,19.47,0,0,1-2-1.18,9.22,9.22,0,0,1-1.42-1.2,4.14,4.14,0,0,1-.86-1.34,4.44,4.44,0,0,1-.28-1.64,4.88,4.88,0,0,1,.38-1.9,4.29,4.29,0,0,1,1.14-1.58,5.86,5.86,0,0,1,1.82-1.08,6.9,6.9,0,0,1,2.46-.4,8.3,8.3,0,0,1,3.3.68A11.12,11.12,0,0,1,223.21,65Z"/><path d="M231.73,57v6.24h4.2V66h-4.2V81.15h-3.6V66h-3.6V64.39l3.6-1.36V58Z"/><path class="cls-5" d="M240.08,55.79a6.88,6.88,0,0,1,.53-2.7,6.6,6.6,0,0,1,1.46-2.15,6.72,6.72,0,0,1,2.17-1.43,6.81,6.81,0,0,1,2.63-.51,7.05,7.05,0,0,1,2.7.51,6.68,6.68,0,0,1,2.16,1.43,6.5,6.5,0,0,1,1.42,2.15,7.06,7.06,0,0,1,.52,2.7,6.88,6.88,0,0,1-.53,2.7,6.71,6.71,0,0,1-1.46,2.15,6.79,6.79,0,0,1-4.81,1.94,7.18,7.18,0,0,1-2.63-.48,6.41,6.41,0,0,1-3.63-3.52A7.12,7.12,0,0,1,240.08,55.79Zm1.58,0a5.68,5.68,0,0,0,.39,2.15,5.09,5.09,0,0,0,1.09,1.67,4.91,4.91,0,0,0,1.66,1.08,5.69,5.69,0,0,0,2.1.38,5.4,5.4,0,0,0,2-.38,5.18,5.18,0,0,0,1.65-1.08A5,5,0,0,0,251.68,58a5.49,5.49,0,0,0,.41-2.15,5.67,5.67,0,0,0-.41-2.17A5,5,0,0,0,250.56,52a5.33,5.33,0,0,0-3.69-1.49,5.14,5.14,0,0,0-2.16.43,4.81,4.81,0,0,0-1.64,1.15,4.86,4.86,0,0,0-1,1.7A5.83,5.83,0,0,0,241.66,55.82ZM249.51,54a2.06,2.06,0,0,1-1.85,2.12l2.64,3.13v.12h-1.64l-2.57-3.16h-.25v3.16h-1.48V51.79h2.51a3,3,0,0,1,2,.56A2,2,0,0,1,249.51,54ZM248,54a.77.77,0,0,0-.31-.67,1.28,1.28,0,0,0-.75-.21h-1.13v1.79h1.22a1.09,1.09,0,0,0,.69-.21A.82.82,0,0,0,248,54Z"/></g><g class="cls-4"><path d="M113.22,35.25h-5.67l-1.19,3h-3.31l6.37-15.54h1.83l6.47,15.54h-3.31Zm-4.69-2.65h3.68l-1.76-4.78h-.16Z"/><path d="M125.13,32.17h.11l3.43-9.42H132l-6,15.54h-1.6l-6-15.54h3.32Z"/><path d="M142.8,35.25h-5.67l-1.19,3h-3.32L139,22.75h1.83l6.47,15.54H144Zm-4.69-2.65h3.68L140,27.82h-.16Z"/><path d="M153.79,38.29H150.7V22.75h3.09Z"/><path d="M161.33,35.46h6v2.83h-9.12V22.75h3.08Z"/><path d="M180.19,35.25h-5.67l-1.19,3H170l6.37-15.54h1.83l6.47,15.54h-3.31ZM175.5,32.6h3.68l-1.76-4.78h-.16Z"/><path d="M195.43,30.2a4.19,4.19,0,0,1,1.41.49,3.87,3.87,0,0,1,1,.86,3.73,3.73,0,0,1,.59,1.09,3.67,3.67,0,0,1,.19,1.17,3.91,3.91,0,0,1-1.54,3.32,7.1,7.1,0,0,1-4.33,1.16h-4.71V22.75h4.62a7.74,7.74,0,0,1,2.35.31,4.56,4.56,0,0,1,1.6.84,3.45,3.45,0,0,1,.92,1.27,4.35,4.35,0,0,1,.29,1.58,4.14,4.14,0,0,1-.11.95,3.78,3.78,0,0,1-.39,1,3,3,0,0,1-.74.86,2.9,2.9,0,0,1-1.16.54Zm-.8-2.95a1.54,1.54,0,0,0-.57-1.33,2.11,2.11,0,0,0-1.32-.43h-1.6v3.59h1.64a1.89,1.89,0,0,0,1.33-.48A1.73,1.73,0,0,0,194.63,27.25Zm-3.49,4.37v3.93h2.1a2.32,2.32,0,0,0,1.58-.53,1.86,1.86,0,0,0,.61-1.5,1.8,1.8,0,0,0-.19-.87,1.76,1.76,0,0,0-.51-.6,2.26,2.26,0,0,0-.74-.33,3.29,3.29,0,0,0-.82-.1Z"/><path d="M205.35,35.46h6v2.83h-9.12V22.75h3.08Z"/><path d="M224.07,25.59H218v3.35h5.49v2.84H218v3.68h6.35v2.83h-9.44V22.75h9.19Z"/><path d="M243.52,33.22a6,6,0,0,1-.38,2.13,5.4,5.4,0,0,1-1.08,1.71,5.06,5.06,0,0,1-1.6,1.15,4.49,4.49,0,0,1-2,.43,5,5,0,0,1-2-.39,4.75,4.75,0,0,1-1.59-1.09,4.81,4.81,0,0,1-1.06-1.7,6.16,6.16,0,0,1-.39-2.24,6.5,6.5,0,0,1,.37-2.24,5.34,5.34,0,0,1,1-1.77,4.69,4.69,0,0,1,3.59-1.59,5,5,0,0,1,2.07.42,4.63,4.63,0,0,1,1.59,1.17,5.32,5.32,0,0,1,1,1.77A6.75,6.75,0,0,1,243.52,33.22Zm-3,0a5.46,5.46,0,0,0-.12-1.17,3.55,3.55,0,0,0-.37-1,2,2,0,0,0-.61-.64,1.64,1.64,0,0,0-.88-.24,1.53,1.53,0,0,0-.84.25,2.13,2.13,0,0,0-.63.67,3.57,3.57,0,0,0-.39.95,4.55,4.55,0,0,0-.13,1.13,3.43,3.43,0,0,0,.57,2.09,1.72,1.72,0,0,0,1.44.76,1.69,1.69,0,0,0,1.39-.77A3.46,3.46,0,0,0,240.48,33.2Z"/><path d="M249.42,29.17a4,4,0,0,1,1.3-1.13,3.66,3.66,0,0,1,1.76-.42,3.31,3.31,0,0,1,1.12.2,3,3,0,0,1,1,.62,3.06,3.06,0,0,1,.67,1.06,4.27,4.27,0,0,1,.25,1.55v7.24h-3V32.12a2,2,0,0,0-.35-1.34,1.21,1.21,0,0,0-.86-.35,1.88,1.88,0,0,0-1,.32,2.81,2.81,0,0,0-.83.85v6.69h-3V27.94H249l.27,1.23Z"/></g></g></g></g></g></g><g id="overcastCanvas-group"><path id="overcastCanvas-bezier" class="cls-6" d="M51.25,82.25a30,30,0,1,1,30-30A29.92,29.92,0,0,1,51.25,82.25Zm0-11.87,2.25-2.25L51.25,59.5,49,68.13Zm-2.87-.13L47.25,74.5l2.63-2.62Zm5.74,0-1.5,1.5,2.63,2.62ZM56.25,78l-5-5-5,5a32.33,32.33,0,0,0,5,.5A22.21,22.21,0,0,0,56.25,78Zm-5-52a26.23,26.23,0,0,0-8.63,51l5.63-20.87a4.88,4.88,0,0,1-2-4,5,5,0,1,1,8,4L59.88,77a26.23,26.23,0,0,0-8.63-51ZM68.37,65.25a1.93,1.93,0,0,1-2.62.37,1.71,1.71,0,0,1-.38-2.5,19.17,19.17,0,0,0,0-21.74,1.71,1.71,0,0,1,.38-2.5,1.93,1.93,0,0,1,2.62.37,22.53,22.53,0,0,1,0,26Zm-9.12-4.88a2.12,2.12,0,0,1,.12-2.87,8.15,8.15,0,0,0,1.88-5.25A8.58,8.58,0,0,0,59.37,47a2.25,2.25,0,0,1-.12-2.87A1.72,1.72,0,0,1,61.88,44a12.47,12.47,0,0,1,0,16.5A1.82,1.82,0,0,1,59.25,60.37Zm-16,0a1.82,1.82,0,0,1-2.63.13,12.47,12.47,0,0,1,0-16.5,1.72,1.72,0,0,1,2.63.13A2.12,2.12,0,0,1,43.13,47a8.58,8.58,0,0,0-1.88,5.25,8.15,8.15,0,0,0,1.88,5.25A2.11,2.11,0,0,1,43.25,60.37Zm-6.5,5.25a1.93,1.93,0,0,1-2.62-.37,22.53,22.53,0,0,1,0-26,1.93,1.93,0,0,1,2.62-.37,1.71,1.71,0,0,1,.38,2.5,19.17,19.17,0,0,0,0,21.74A1.81,1.81,0,0,1,36.75,65.62Z"/></g></svg>